<svg width="1200" height="900" viewBox="0 0 1200 900" fill="none" xmlns="http://www.w3.org/2000/svg">
  <rect width="1200" height="900" rx="48" fill="#F5EEE6"/>
  <circle cx="188" cy="184" r="118" fill="#D9ECE8"/>
  <circle cx="1002" cy="726" r="148" fill="#F7D7CB"/>
  <rect x="130" y="148" width="940" height="604" rx="40" fill="#FFF8F0" stroke="#17384A" stroke-opacity="0.1" stroke-width="6"/>
  <rect x="188" y="224" width="250" height="336" rx="24" fill="#FFF1E8" transform="rotate(-6 188 224)"/>
  <rect x="238" y="286" width="150" height="22" rx="11" fill="#C8644D"/>
  <rect x="238" y="326" width="118" height="18" rx="9" fill="#17384A" fill-opacity="0.12"/>
  <rect x="476" y="194" width="266" height="388" rx="28" fill="#D9ECE8"/>
  <rect x="518" y="246" width="182" height="22" rx="11" fill="#0F7B82"/>
  <rect x="518" y="288" width="146" height="18" rx="9" fill="#17384A" fill-opacity="0.12"/>
  <rect x="518" y="330" width="158" height="18" rx="9" fill="#17384A" fill-opacity="0.12"/>
  <rect x="790" y="232" width="188" height="270" rx="24" fill="#17384A"/>
  <path d="M870 296L920 382H820L870 296Z" fill="#FFF8F0"/>
  <path d="M920 382H820V430H920V382Z" fill="#FFF8F0"/>
  <rect x="218" y="610" width="208" height="84" rx="22" fill="#FFF8F0"/>
  <rect x="496" y="610" width="208" height="84" rx="22" fill="#FFF1E8"/>
  <rect x="774" y="610" width="208" height="84" rx="22" fill="#FFF8F0"/>
  <rect x="252" y="642" width="140" height="18" rx="9" fill="#17384A" fill-opacity="0.14"/>
  <rect x="530" y="642" width="140" height="18" rx="9" fill="#17384A" fill-opacity="0.14"/>
  <rect x="808" y="642" width="140" height="18" rx="9" fill="#17384A" fill-opacity="0.14"/>
  <text x="184" y="736" fill="#17384A" font-family="Arial, sans-serif" font-size="40" font-weight="700">Zine and campaign package for public advocacy</text>
</svg>
