<svg width="1200" height="900" viewBox="0 0 1200 900" fill="none" xmlns="http://www.w3.org/2000/svg">
  <rect width="1200" height="900" rx="48" fill="#F1F3EF"/>
  <circle cx="188" cy="746" r="144" fill="#D9ECE8"/>
  <circle cx="986" cy="194" r="132" fill="#F7D7CB"/>
  <rect x="96" y="138" width="720" height="532" rx="38" fill="#FFF8F0" stroke="#17384A" stroke-opacity="0.1" stroke-width="6"/>
  <rect x="96" y="138" width="720" height="68" rx="38" fill="#17384A"/>
  <rect x="154" y="248" width="308" height="318" rx="26" fill="#D9ECE8"/>
  <path d="M312 280C234 280 194 332 194 398C194 452 230 500 312 538C394 500 430 452 430 398C430 332 390 280 312 280Z" fill="#FFF8F0"/>
  <path d="M312 280V538" stroke="#17384A" stroke-opacity="0.12" stroke-width="8"/>
  <rect x="502" y="248" width="258" height="118" rx="24" fill="#FFF1E8"/>
  <rect x="530" y="284" width="108" height="18" rx="9" fill="#C8644D"/>
  <rect x="530" y="318" width="166" height="18" rx="9" fill="#17384A" fill-opacity="0.12"/>
  <rect x="502" y="390" width="258" height="176" rx="24" fill="#FFF8F0"/>
  <rect x="530" y="430" width="174" height="18" rx="9" fill="#0F7B82"/>
  <rect x="530" y="470" width="132" height="18" rx="9" fill="#17384A" fill-opacity="0.12"/>
  <rect x="530" y="510" width="148" height="18" rx="9" fill="#17384A" fill-opacity="0.1"/>
  <rect x="874" y="212" width="230" height="428" rx="36" fill="#FFF8F0" stroke="#17384A" stroke-opacity="0.1" stroke-width="4"/>
  <rect x="906" y="272" width="166" height="108" rx="22" fill="#D9ECE8"/>
  <rect x="932" y="306" width="102" height="18" rx="9" fill="#0F7B82"/>
  <rect x="906" y="412" width="166" height="154" rx="22" fill="#FFF1E8"/>
  <text x="126" y="742" fill="#17384A" font-family="Arial, sans-serif" font-size="40" font-weight="700">Interactive public guide for deepfake literacy</text>
</svg>
