<svg width="1200" height="900" viewBox="0 0 1200 900" fill="none" xmlns="http://www.w3.org/2000/svg">
  <rect width="1200" height="900" rx="48" fill="#E5F0EE"/>
  <circle cx="1018" cy="170" r="118" fill="#F5D8CC"/>
  <circle cx="210" cy="742" r="152" fill="#D3E6E1"/>
  <rect x="104" y="118" width="704" height="498" rx="34" fill="#FFF8F0" stroke="#17384A" stroke-opacity="0.12" stroke-width="6"/>
  <rect x="104" y="118" width="704" height="72" rx="34" fill="#0F7B82"/>
  <circle cx="158" cy="154" r="10" fill="#FFF8F0" fill-opacity="0.85"/>
  <circle cx="192" cy="154" r="10" fill="#FFF8F0" fill-opacity="0.85"/>
  <circle cx="226" cy="154" r="10" fill="#FFF8F0" fill-opacity="0.85"/>
  <rect x="154" y="238" width="272" height="260" rx="28" fill="#D5ECE7"/>
  <rect x="192" y="274" width="194" height="132" rx="22" fill="#FFF8F0"/>
  <circle cx="252" cy="336" r="30" fill="#C8644D"/>
  <rect x="302" y="312" width="54" height="18" rx="9" fill="#17384A" fill-opacity="0.12"/>
  <rect x="302" y="344" width="72" height="18" rx="9" fill="#17384A" fill-opacity="0.12"/>
  <rect x="192" y="430" width="194" height="18" rx="9" fill="#17384A" fill-opacity="0.14"/>
  <rect x="192" y="462" width="148" height="18" rx="9" fill="#17384A" fill-opacity="0.1"/>
  <rect x="466" y="238" width="292" height="82" rx="24" fill="#FFF8F0"/>
  <rect x="490" y="266" width="88" height="18" rx="9" fill="#0F7B82" fill-opacity="0.7"/>
  <rect x="592" y="266" width="132" height="18" rx="9" fill="#17384A" fill-opacity="0.12"/>
  <rect x="466" y="340" width="292" height="120" rx="28" fill="#FFF1E8"/>
  <circle cx="538" cy="398" r="38" fill="#C8644D"/>
  <path d="M561 420L608 467" stroke="#17384A" stroke-width="16" stroke-linecap="round"/>
  <circle cx="529" cy="390" r="68" stroke="#17384A" stroke-opacity="0.18" stroke-width="14"/>
  <rect x="610" y="378" width="96" height="18" rx="9" fill="#17384A" fill-opacity="0.14"/>
  <rect x="610" y="410" width="76" height="18" rx="9" fill="#17384A" fill-opacity="0.1"/>
  <rect x="466" y="482" width="292" height="78" rx="24" fill="#FFF8F0"/>
  <rect x="492" y="512" width="64" height="18" rx="9" fill="#0F7B82"/>
  <rect x="572" y="512" width="116" height="18" rx="9" fill="#17384A" fill-opacity="0.12"/>
  <rect x="854" y="198" width="238" height="488" rx="42" fill="#FFF8F0" stroke="#17384A" stroke-opacity="0.12" stroke-width="6"/>
  <rect x="884" y="248" width="178" height="126" rx="26" fill="#D5ECE7"/>
  <rect x="910" y="278" width="78" height="18" rx="9" fill="#0F7B82"/>
  <rect x="910" y="312" width="122" height="18" rx="9" fill="#17384A" fill-opacity="0.12"/>
  <rect x="884" y="402" width="178" height="106" rx="26" fill="#FFF1E8"/>
  <rect x="910" y="432" width="122" height="18" rx="9" fill="#C8644D"/>
  <rect x="910" y="466" width="86" height="18" rx="9" fill="#17384A" fill-opacity="0.12"/>
  <rect x="884" y="540" width="178" height="96" rx="26" fill="#FFF8F0"/>
  <rect x="910" y="570" width="102" height="18" rx="9" fill="#17384A" fill-opacity="0.14"/>
  <rect x="910" y="604" width="68" height="18" rx="9" fill="#0F7B82" fill-opacity="0.72"/>
  <text x="164" y="168" fill="#FFF8F0" font-family="Arial, sans-serif" font-size="28" font-weight="700">SourceCheck</text>
  <text x="154" y="560" fill="#17384A" font-family="Arial, sans-serif" font-size="42" font-weight="700">Trust the post?</text>
  <text x="154" y="604" fill="#506777" font-family="Arial, sans-serif" font-size="26">Check before you repost.</text>
</svg>
